# xmcd CD database file
#
# Track frame offsets:
#	150
#	37367
#	74397
#	121832
#	141915
#	171767
#	202772
#
# Disc length: 3151 seconds
#
# Revision: 0
# Processed by: cddbd v1.5.1PL2 Copyright (c) Steve Scherf et al.
# Submitted via: CDex 1.51
#
DISCID=640c4d07
DTITLE=Wingmakers - Ancient Arrow 11-17
DYEAR=1900
DGENRE=New Age
TTITLE0=Chamber 11
TTITLE1=Chamber 12
TTITLE2=Chamber 13
TTITLE3=Chamber 14
TTITLE4=Chamber 15
TTITLE5=Chamber 16
TTITLE6=Chamber 17
EXTD=
EXTT0=
EXTT1=
EXTT2=
EXTT3=
EXTT4=
EXTT5=
EXTT6=
PLAYORDER=
